<svg width="34" height="45" viewBox="0 0 34 45" fill="none" xmlns="http://www.w3.org/2000/svg">
<path d="M3.4 3.60039H3.2V3.80039V41.2004V41.4004H3.4H30.6H30.8V41.2004V14.0004V13.8004H30.6H20.6V3.80039V3.60039H20.4H3.4ZM23.9414 6.03897L23.6 5.69755V6.18039V10.6004V10.8004H23.8H28.22H28.7028L28.3614 10.459L23.9414 6.03897ZM15.5 24.2004V24.0004H15.3H10.6828L17 17.6832L23.3172 24.0004H18.7H18.5V24.2004V32.5004H15.5V24.2004ZM0.2 44.4004V0.600391H22.6972L23.1486 1.05181L33.3486 11.2518L33.8 11.7032V44.4004H0.2ZM23.6 37.6004H10.4V34.6004H23.6V37.6004Z" fill="#009CDE" stroke="white" stroke-width="0.4"/>
</svg>
